# xmcd
#
# Track frame offsets: 
#        150
#        89591
#        121633
#
# Disc length: 2030 seconds
#
# Revision: 2
# Processed by: cddbd v1.5.2PL0 Copyright (c) Steve Scherf et al.
# Submitted via: ExactAudioCopy v0.99pb4
#
DISCID=1b07ec03
DTITLE=Gary Graffman - The Complete RCA and Columbia Albums [Disc 19] 
DTITLE=Various Artist - Tchaikovsky
DYEAR=1969
DGENRE=Romantic Concerto
TTITLE0=Piano Concerto no.1 in B-flat minor, op.23 - 1. Allegro non tr
TTITLE0=oppo e molto maestoso - Allegro con spirito
TTITLE1=Piano Concerto no.1 in B-flat minor, op.23 - 2. Andantino semp
TTITLE1=lice - Prestissimo - Tempo I
TTITLE2=Piano Concerto no.1 in B-flat minor, op.23 - 3. Allegro con fu
TTITLE2=oco - Allegro vivo
EXTD=
EXTT0=
EXTT1=
EXTT2=
PLAYORDER=
